<svg width="84" height="99" fill="none" xmlns="http://www.w3.org/2000/svg"><g clip-path="url(#clip0)" fill-rule="evenodd" clip-rule="evenodd"><path d="M61.408 53.154c-3.558 9.662-14.12 16.399-14.12 16.399l14.12 23.75s7.209 2.577 6.778 3.958c-.431 1.38-9.123.339-9.602 0-.678-.482-.035-1.254 0-2.262.04-1.142 0-2.262 0-2.262l-12.99-22.053s-3.642 1.539-6.778 1.696a9.014 9.014 0 0 1-4.518-1.131s-10.513 3.785-14.685 1.696c-3.707-1.856-1.13-9.612-1.13-9.612s-3.188-3.324-2.823-4.524c.365-1.2 7.864 1.566 7.342 3.393-.521 1.826-5.648 5.654-2.259 9.047 1.448 1.45 11.532.641 15.25-4.524 4.91-6.82 7.907-15.267 7.907-15.267s-2.004.628-4.519 1.696c-2.993 1.27-6.806 3.039-10.166 3.393-4.112.433-7.742-3.593-5.083-3.958 2.658-.366.044 2.366 3.953 2.261 2.443-.065 8.829-1.992 12.99-3.958a13.27 13.27 0 0 0 3.954-2.827c.588-4.125.965-8.277 1.13-12.44.205-5.434-.33-11.47.565-16.4a15.096 15.096 0 0 1 5.083-8.481S50.99-.478 54.066.565c1.484.504 2.745 1.425 1.13 4.524-1.23 2.359-.565 5.655-.565 5.655a28.23 28.23 0 0 1 7.531 9.034 28.263 28.263 0 0 1 3.2 11.323 38.39 38.39 0 0 1-1.695 15.267c-.135.433 12.658-2.473 17.509-2.827 1.15-.084 2.117.562 2.26 1.131.141.57.184 3.28-2.26 3.393-3.624.17-1.531-1.815-3.389-1.697-5.879.376-14.68 2.41-14.778 2.665-.528 1.377-1.08 2.707-1.6 4.121z" fill="#FFBA4A"/><path d="M47.853 42.976c-.688-1.195-.508-2.535-.565-4.524-.232-8.055-.197-17.077.565-20.357a10.108 10.108 0 0 1 5.083-6.786 8.585 8.585 0 0 1 2.26 1.131 30.268 30.268 0 0 1 7.907 13.006c2.485 8.825 1.068 16.342 0 19.226-.622 1.673-1.13 5.711-5.084 6.22-1.537.2-3.08-1.81-4.518-2.827-3.454-2.446-4.96-3.895-5.648-5.09zM41.641 59.94l-6.778 9.047s.17 2.782 2.26 2.828c2.414.052 3.77-2.831 3.953-5.655.182-2.824.565-6.22.565-6.22z" fill="#FCD04D"/><path d="M56.89 37.886c.96 0 1.845-.64 2.53-1.704.596 2.061 1.71 3.4 3.103 3.4 2.354 0 4.6-3.806 5.016-8.502.416-4.695-1.155-8.502-3.509-8.502-1.48 0-2.917 1.507-3.884 3.793-.715-1.924-1.904-3.187-3.256-3.187-2.184 0-3.954 3.291-3.954 7.351 0 4.06 1.77 7.351 3.954 7.351z" fill="#fff"/><path d="M63.6 18.875l-2.187-.572a.847.847 0 1 0-.428 1.64l2.186.572a.846.846 0 0 0 .92-1.243.847.847 0 0 0-.492-.397zm-8.168 1.575l1.935-1.24a.863.863 0 0 1 1.19.245.849.849 0 0 1-.263 1.177l-1.935 1.24a.864.864 0 0 1-1.19-.246.85.85 0 0 1 .263-1.176zm10.212 9.52c-.467 0-.847.633-.847 1.414 0 .78.38 1.413.847 1.413.468 0 .847-.633.847-1.413 0-.782-.38-1.414-.847-1.414zm-6.213 1.13c-.467 0-.847.633-.847 1.414 0 .781.38 1.414.847 1.414.468 0 .848-.633.848-1.414 0-.78-.38-1.413-.848-1.413z" fill="#000"/><path d="M57.455 55.416a2.317 2.317 0 0 1-1.13 1.697c-1.236.618-3.389.565-3.389.565s3.244 1.005 5.084 0c.879-.48 1.13-3.393 1.13-3.393l2.258-1.696c.833-.67 1.59-1.428 2.26-2.262v-2.828a14.886 14.886 0 0 1-2.825 3.959 4.864 4.864 0 0 1-3.388 1.13s-8.08-3.965-12.279-10.051c-4.37-6.334.983-5.216.983-5.216a12 12 0 0 1 0-1.696 11.122 11.122 0 0 0-6.213-.566c-3.133.69-6.576 3.393-8.472 3.393-3.88 0-6.646-3.393-9.601-3.393-1.46 0-4.643 1.417-8.472 1.697a38.896 38.896 0 0 1-8.472-.566s4.292 2.662 2.824 4.524C5.946 43.01.411 45.804.411 45.804l13.555.564s-.519 1.912-1.695 2.828c-1.355 1.054-3.953 1.696-3.953 1.696 3.564.434 7.167.434 10.73 0 4.833-.543 10.988-2.466 15.25-2.827 9.32-.792 11.05 2.032 14.685 3.393a107.184 107.184 0 0 0 6.777 2.262s-2.249 1.907-6.212 1.13c-.163-.093 1.785 1.84 3.953 1.697a9.86 9.86 0 0 0 3.954-1.131z" fill="#FF4F4F"/><path d="M47.288 35.624s-1.027-10.676.565-17.529a10.107 10.107 0 0 1 5.084-6.786s1.884.453 2.259 1.131c.375.679-2.046 1.62-3.39 6.786-1.031 3.968-1.242 11.798-2.258 14.702-1.278 3.654-2.26 1.697-2.26 1.697zm5.171-25.59s-.283-5.178.154-7.05c.318-1.368 1.058-1.78 1.453-1.853.274-.05 1.543.214 1.13 1.696-.057.204-.874-1.204-1.695 0-.661.97-.476 1.617-.565 2.828-.077 1.054-.477 4.379-.477 4.379z" fill="#FEE44F"/><path d="M55.47 45.615a.756.756 0 1 0-.282.88.665.665 0 0 0 .282-.88zm1.694 1.13a.757.757 0 1 0-.282.881.665.665 0 0 0 .282-.88z" fill="#fff"/><path d="M61.408 45.237s-1.889 2.54-4.54 1.562c-2.665-.982-3.934-6.668-3.932-6.65a1.025 1.025 0 0 1 1.13.565c.384.762.031 3.635 2.895 5.439 1.651 1.041 2.736-.474 3.318-.916a1.152 1.152 0 0 1 1.13 0z" fill="#FF8174"/></g><defs><clipPath id="clip0"><path fill="#fff" transform="matrix(-1 0 0 1 84 0)" d="M0 0h83.589v98.392H0z"/></clipPath></defs></svg>